Coordinates
version=1
nRows=12
nColumns=24
inDegrees=yes

Units are S.I. units (second, meters, Newtons, ...)
Angles are in degrees.

endheader
time	pelvis_tilt	pelvis_list	pelvis_rotation	pelvis_tx	pelvis_ty	pelvis_tz	hip_flexion_r	hip_adduction_r	hip_rotation_r	knee_angle_r	ankle_angle_r	subtalar_angle_r	mtp_angle_r	hip_flexion_l	hip_adduction_l	hip_rotation_l	knee_angle_l	ankle_angle_l	subtalar_angle_l	mtp_angle_l	lumbar_extension	lumbar_bending	lumbar_rotation
      0.91700000	      0.88880834	     -7.00780174	     -4.17669151	     -0.21151419	      0.99752589	      0.34020541	    -13.16760532	      9.07464007	     -5.47865220	     -9.75483279	      8.82454385	     -5.89297406	     -2.81931432	     22.67027352	     -8.27619679	     -9.91658446	     -3.51917874	      2.46423475	     -7.56608429	     -9.56415033	    -13.22036406	      7.87174022	      7.56025033
      0.92116667	      0.97958820	     -6.88307721	     -4.31699195	     -0.20553307	      0.99719061	      0.34066647	    -13.41083865	      8.83251113	     -5.41419032	    -10.20422241	      8.88912927	     -5.61943616	     -2.71801609	     22.47452204	     -8.17107240	     -9.81754010	     -3.89535329	      2.19227963	     -7.80368673	     -9.51895038	    -13.29213756	      7.57973379	      7.72137667
      0.92533333	      1.03795509	     -6.75220894	     -4.45591770	     -0.19952925	      0.99686578	      0.34111849	    -13.59776945	      8.58449964	     -5.35250936	    -10.68902504	      8.90597875	     -5.37331102	     -2.61134140	     22.31928144	     -8.06137466	     -9.71023286	     -4.30872513	      1.87621234	     -8.05067084	     -9.46834409	    -13.32135933	      7.28560399	      7.85795343
      0.92950000	      1.09323778	     -6.61821707	     -4.58787072	     -0.19352973	      0.99659515	      0.34153702	    -13.75586577	      8.32910527	     -5.30175585	    -11.21398717	      8.89393996	     -5.11900912	     -2.49283184	     22.17055115	     -7.94518924	     -9.58612201	     -4.74271593	      1.50786271	     -8.33235193	     -9.41010700	    -13.34660542	      6.98834660	      7.99816975
      0.93366667	      1.16793198	     -6.47333395	     -4.70348894	     -0.18753031	      0.99640725	      0.34189285	    -13.90828178	      8.05716376	     -5.27488349	    -11.77809260	      8.84378033	     -4.86016154	     -2.35353023	     22.00155333	     -7.80711317	     -9.44329749	     -5.18435656	      1.08298636	     -8.66140237	     -9.34060667	    -13.39341155	      6.68231281	      8.13127803
      0.93783333	      1.23070984	     -6.31664594	     -4.80437381	     -0.18150242	      0.99626338	      0.34219400	    -14.02242877	      7.77105217	     -5.27119932	    -12.38079854	      8.74144832	     -4.60474500	     -2.19502650	     21.84729423	     -7.65060341	     -9.29390712	     -5.63594165	      0.62516410	     -9.00461044	     -9.26146603	    -13.42065857	      6.36843802	      8.23814559
      0.94200000	      1.34973189	     -6.16926528	     -4.77666805	     -0.17550257	      0.99620925	      0.34211907	    -14.16738073	      7.49303776	     -5.45401424	    -13.01556382	      8.58879755	     -4.26514081	     -1.62992535	     21.65864646	     -7.43134152	     -8.94497746	     -6.08550225	      0.11767732	     -9.50907428	     -8.96961700	    -13.51496588	      6.10292110	      8.31686679
      0.94616667	      1.32325299	     -6.01761962	     -4.92270671	     -0.16946726	      0.99607623	      0.34255195	    -14.12396151	      7.21935845	     -5.36011495	    -13.72637385	      8.38709411	     -4.13245278	     -1.49481808	     21.61039943	     -7.31941162	     -8.91211133	     -6.59157665	     -0.37208983	     -9.76251144	     -8.90820855	    -13.43977248	      5.78925520	      8.30516865
      0.95033333	      1.42652673	     -5.86078592	     -4.86688687	     -0.16348950	      0.99610307	      0.34232428	    -14.17640016	      6.92143658	     -5.59685888	    -14.48814629	      8.17891865	     -3.76014223	     -0.84167415	     21.44474701	     -7.07306210	     -8.53140138	     -7.04633282	     -0.94232020	    -10.36576027	     -8.59860873	    -13.51927763	      5.52919798	      8.42907324
      0.95450000	      1.38423205	     -5.69666539	     -4.99137229	     -0.15741996	      0.99607399	      0.34267840	    -14.04930134	      6.63270416	     -5.53027941	    -15.30335609	      7.85351389	     -3.67114859	     -0.68197803	     21.41205605	     -6.94436709	     -8.51523868	     -7.55106733	     -1.44731720	    -10.61555869	     -8.53234816	    -13.42078233	      5.20816708	      8.37288000
      0.95866667	      1.40510419	     -5.55810156	     -4.86800711	     -0.15146403	      0.99605486	      0.34221541	    -13.93363793	      6.35698916	     -5.85825699	    -16.19931437	      7.55636788	     -3.27765315	      0.17855121	     21.36503500	     -6.68965865	     -8.05265496	     -8.04096474	     -2.02220382	    -11.28705216	     -8.17195713	    -13.40684831	      5.00999397	      8.42466299
      0.96283333	      1.33992380	     -5.39645530	     -4.89865355	     -0.14541265	      0.99604509	      0.34226232	    -13.69466612	      6.06632614	     -5.95129502	    -17.14603906	      7.09154065	     -3.26701250	      7.72535850	     21.38343754	     -6.52070358	     -7.93966643	     -8.56247502	     -2.52404554	    -11.64459161	     -5.22035530	    -13.27820509	      4.72912609	      8.29126168
